<?xml version="1.0" encoding="utf-8"?>
<!-- Generator: Adobe Illustrator 15.1.0, SVG Export Plug-In . SVG Version: 6.00 Build 0)  -->
<!DOCTYPE svg PUBLIC "-//W3C//DTD SVG 1.1//EN" "http://www.w3.org/Graphics/SVG/1.1/DTD/svg11.dtd">
<svg version="1.1" id="Layer_1" xmlns="http://www.w3.org/2000/svg" xmlns:xlink="http://www.w3.org/1999/xlink" x="0px" y="0px"
	 width="176.23px" height="200.324px" viewBox="0 0 176.23 200.324" enable-background="new 0 0 176.23 200.324"
	 xml:space="preserve">
<g>
	<defs>
		<rect id="SVGID_1_" x="-11.885" y="0.162" width="200" height="270"/>
	</defs>
	<clipPath id="SVGID_2_">
		<use xlink:href="#SVGID_1_"  overflow="visible"/>
	</clipPath>
	<g clip-path="url(#SVGID_2_)">
		<defs>
			<rect id="SVGID_3_" x="-11.885" y="0.162" width="200" height="270"/>
		</defs>
		<clipPath id="SVGID_4_">
			<use xlink:href="#SVGID_3_"  overflow="visible"/>
		</clipPath>
		<path clip-path="url(#SVGID_4_)" fill="#99294A" d="M85.876,127.26c0.704-1.064,1.926-1.639,3.224-1.493l58.589,7.039
			c1.058,0.129,1.995,0.747,2.527,1.668l21.323,36.937c0.568,0.983,0.604,2.189,0.096,3.203c-0.508,1.018-1.496,1.711-2.626,1.847
			l-24.138,2.881l-14.564,19.463c-0.641,0.859-1.645,1.358-2.709,1.358c-0.065,0-0.135-0.003-0.204-0.008
			c-1.137-0.068-2.161-0.702-2.729-1.69l-38.901-67.653C85.126,129.705,85.169,128.326,85.876,127.26"/>
		<g opacity="0.3" clip-path="url(#SVGID_4_)">
			<g>
				<defs>
					<rect id="SVGID_5_" x="120.412" y="132.51" width="51.582" height="46.831"/>
				</defs>
				<clipPath id="SVGID_6_">
					<use xlink:href="#SVGID_5_"  overflow="visible"/>
				</clipPath>
				<path clip-path="url(#SVGID_6_)" fill="#231F20" d="M120.862,137.576c-0.638-1.106-0.594-2.484,0.112-3.551
					c0.704-1.064,1.926-1.639,3.225-1.493l26.752,3.214l20.589,35.663c0.569,0.985,0.605,2.191,0.097,3.205
					c-0.509,1.018-1.496,1.711-2.626,1.846l-24.134,2.881L120.862,137.576z"/>
			</g>
		</g>
		<path clip-path="url(#SVGID_4_)" fill="#99294A" d="M91.797,127.26c-0.704-1.064-1.927-1.639-3.225-1.493l-58.589,7.04
			c-1.057,0.129-1.995,0.746-2.527,1.668L6.133,171.41c-0.568,0.983-0.605,2.189-0.096,3.203c0.509,1.019,1.497,1.713,2.626,1.848
			l24.138,2.88l14.565,19.464c0.641,0.858,1.645,1.357,2.708,1.357c0.066,0,0.136-0.003,0.205-0.007
			c1.137-0.069,2.16-0.703,2.729-1.691l38.9-67.653C92.547,129.705,92.504,128.326,91.797,127.26"/>
		<g opacity="0.3" clip-path="url(#SVGID_4_)">
			<g>
				<defs>
					<rect id="SVGID_7_" x="5.68" y="132.51" width="51.581" height="46.831"/>
				</defs>
				<clipPath id="SVGID_8_">
					<use xlink:href="#SVGID_7_"  overflow="visible"/>
				</clipPath>
				<path clip-path="url(#SVGID_8_)" fill="#231F20" d="M56.811,137.576c0.638-1.106,0.595-2.484-0.112-3.551
					c-0.704-1.064-1.926-1.639-3.225-1.493l-26.752,3.214L6.133,171.409c-0.569,0.985-0.605,2.191-0.096,3.205
					c0.508,1.018,1.496,1.711,2.626,1.846l24.133,2.881L56.811,137.576z"/>
			</g>
		</g>
		<path clip-path="url(#SVGID_4_)" fill="#EF92AF" d="M165.607,69.454c-3.429-3.409-6.673-6.63-7.997-9.824
			c-1.424-3.429-1.434-8.381-1.444-13.171c-0.02-7.588-0.036-15.43-5.14-20.534c-5.104-5.107-12.949-5.123-20.534-5.143
			c-4.789-0.01-9.741-0.023-13.17-1.443c-3.197-1.325-6.419-4.569-9.828-8.001c-5.203-5.24-11.099-11.176-18.657-11.176
			S75.382,6.098,70.179,11.338c-3.409,3.432-6.63,6.676-9.827,8.001c-3.429,1.423-8.381,1.433-13.171,1.443
			c-7.584,0.02-15.427,0.036-20.533,5.14c-5.105,5.107-5.121,12.949-5.141,20.534c-0.01,4.79-0.02,9.741-1.444,13.17
			c-1.328,3.198-4.569,6.419-8.001,9.828C6.823,74.657,0.887,80.553,0.887,88.111c0,7.562,5.936,13.458,11.175,18.661
			c3.432,3.409,6.676,6.627,8.001,9.824c1.424,3.429,1.434,8.381,1.444,13.172c0.02,7.586,0.036,15.43,5.14,20.532
			c5.103,5.107,12.949,5.124,20.537,5.14c4.79,0.014,9.738,0.023,13.167,1.444c3.198,1.328,6.419,4.568,9.828,8
			c5.203,5.24,11.099,11.176,18.657,11.176c7.559,0,13.455-5.936,18.658-11.176c3.409-3.432,6.63-6.672,9.827-8
			c3.426-1.421,8.377-1.431,13.164-1.444c7.588-0.016,15.434-0.032,20.541-5.14c5.103-5.103,5.12-12.946,5.14-20.532
			c0.01-4.791,0.02-9.743,1.443-13.172c1.325-3.197,4.569-6.415,8.001-9.824c5.239-5.203,11.175-11.099,11.175-18.661
			C176.786,80.553,170.846,74.657,165.607,69.454"/>
		<path clip-path="url(#SVGID_4_)" fill="#99294A" d="M88.836,29.113c-32.584,0-59,26.415-59,59c0,32.584,26.415,58.999,59,58.999
			c32.584,0,59-26.415,59-58.999C147.836,55.528,121.42,29.113,88.836,29.113 M96.498,135.859c-0.089,0.014-0.176,0.033-0.265,0.047
			c-0.67,0.104-1.347,0.184-2.025,0.259c-0.137,0.015-0.271,0.038-0.408,0.052c-0.644,0.066-1.295,0.109-1.946,0.149
			c-0.174,0.011-0.347,0.031-0.521,0.04c-0.827,0.042-1.659,0.063-2.496,0.063c-1.67,0-3.319-0.084-4.945-0.249
			c-18.694-1.898-34.241-14.446-40.478-31.48c-1.898-5.184-2.934-10.784-2.934-16.626c0-0.838,0.021-1.67,0.063-2.497
			c0.009-0.174,0.029-0.346,0.04-0.52c0.04-0.652,0.083-1.303,0.149-1.947c0.014-0.138,0.037-0.272,0.052-0.41
			c0.075-0.677,0.156-1.353,0.259-2.022c0.014-0.095,0.035-0.188,0.05-0.283c0.114-0.71,0.237-1.416,0.38-2.115
			c0.004-0.017,0.009-0.034,0.012-0.051c4.548-21.986,24.019-38.512,47.352-38.512c26.706,0,48.356,21.65,48.356,48.357
			C137.193,112.211,119.563,132.186,96.498,135.859"/>
		<path clip-path="url(#SVGID_4_)" fill="#6A0B27" d="M88.836,39.756c-23.333,0-42.804,16.527-47.352,38.512
			c-0.003,0.017-0.008,0.034-0.011,0.051c-0.144,0.699-0.267,1.405-0.38,2.115c-0.016,0.095-0.036,0.188-0.051,0.283
			c-0.103,0.669-0.184,1.345-0.259,2.023c-0.015,0.137-0.038,0.272-0.052,0.409c-0.065,0.645-0.109,1.296-0.149,1.947
			c-0.01,0.174-0.03,0.346-0.039,0.52c-0.042,0.827-0.064,1.659-0.064,2.497c0,5.842,1.036,11.442,2.934,16.626
			c6.238,17.035,21.784,29.582,40.479,31.481c1.625,0.165,3.275,0.25,4.944,0.25c0.837,0,1.67-0.021,2.496-0.063
			c0.175-0.01,0.346-0.029,0.52-0.04c0.652-0.04,1.304-0.083,1.948-0.149c0.137-0.014,0.271-0.036,0.407-0.051
			c0.679-0.075,1.354-0.157,2.024-0.26c0.09-0.014,0.177-0.033,0.266-0.047c23.064-3.672,40.695-23.647,40.695-47.747
			C137.193,61.406,115.543,39.756,88.836,39.756"/>
		<path clip-path="url(#SVGID_4_)" fill="#B74A6A" d="M96.524,125.506l-17.729-4.309c-1.614-0.392-3.224,0.588-3.616,2.202
			l-0.733,3.016c-0.588,2.421,0.694,4.824,2.921,5.747l0.056,2.915c0.042,1.584,1.127,2.949,2.677,3.326l7.368,1.791
			c1.55,0.376,3.14-0.34,3.904-1.728l1.409-2.56c2.375,0.219,4.623-1.35,5.206-3.748l0.733-3.016
			C99.113,127.529,98.133,125.919,96.524,125.506"/>
		<path clip-path="url(#SVGID_4_)" fill="#FFFFFF" d="M102.841,60.187c-14.166-3.33-28.201,5.379-31.489,19.557
			c-1.573,6.746-0.362,13.516,2.875,19.07c2.514,4.277,3.607,9.309,3.199,14.225c-0.198,2.111,1.225,4.03,3.284,4.531l15.775,3.834
			c2.081,0.506,4.21-0.573,5.024-2.534c1.872-4.56,5.117-8.471,9.318-11.138c5.525-3.492,9.755-9.053,11.422-15.911
			C125.677,77.723,116.987,63.513,102.841,60.187 M99.879,73.117c-6.943-1.687-13.985,2.583-15.678,9.547
			c-0.387,1.593-1.991,2.552-3.563,2.17c-1.592-0.387-2.551-1.992-2.169-3.563c2.461-10.128,12.696-16.343,22.803-13.887
			c1.594,0.387,2.553,1.992,2.17,3.563C103.055,72.54,101.471,73.504,99.879,73.117"/>
		<path clip-path="url(#SVGID_4_)" fill="#EF92AF" d="M105.04,51.884c1.571,0.382,3.176-0.577,3.563-2.17l2.44-10.043
			c0.382-1.571-0.577-3.176-2.17-3.563c-1.592-0.387-3.176,0.577-3.563,2.17l-2.44,10.043
			C102.483,49.913,103.468,51.502,105.04,51.884"/>
		<path clip-path="url(#SVGID_4_)" fill="#EF92AF" d="M63.101,77.423c0.382-1.571-0.577-3.176-2.17-3.563l-10.043-2.441
			c-1.571-0.382-3.176,0.577-3.563,2.17c-0.382,1.571,0.577,3.176,2.17,3.563l10.043,2.441C61.13,79.98,62.714,79.016,63.101,77.423
			"/>
		<path clip-path="url(#SVGID_4_)" fill="#EF92AF" d="M144.185,94.094l-10.043-2.441c-1.571-0.382-3.176,0.577-3.563,2.17
			c-0.382,1.571,0.577,3.176,2.171,3.563l10.043,2.441c1.57,0.382,3.176-0.577,3.563-2.17
			C146.737,96.086,145.777,94.481,144.185,94.094"/>
		<path clip-path="url(#SVGID_4_)" fill="#EF92AF" d="M63.14,102.708l-8.842,5.384c-1.399,0.852-1.837,2.657-0.985,4.056
			c0.418,0.686,1.094,1.143,1.816,1.318c0.721,0.176,1.532,0.08,2.218-0.338l8.842-5.384c1.398-0.852,1.837-2.657,0.985-4.056
			C66.344,102.295,64.518,101.852,63.14,102.708"/>
		<path clip-path="url(#SVGID_4_)" fill="#EF92AF" d="M128.317,68.897c0.722,0.175,1.531,0.08,2.218-0.338l8.842-5.384
			c1.399-0.852,1.838-2.657,0.986-4.056c-0.853-1.398-2.657-1.837-4.057-0.985l-8.841,5.384c-1.398,0.852-1.838,2.657-0.986,4.056
			C126.918,68.265,127.574,68.716,128.317,68.897"/>
		<path clip-path="url(#SVGID_4_)" fill="#EF92AF" d="M74.74,54.977c0.418,0.686,1.094,1.143,1.816,1.318
			c0.722,0.176,1.532,0.08,2.218-0.338c1.399-0.851,1.838-2.656,0.986-4.055l-5.384-8.842c-0.852-1.399-2.657-1.837-4.056-0.985
			c-1.399,0.851-1.837,2.656-0.986,4.055L74.74,54.977z"/>
		<path clip-path="url(#SVGID_4_)" fill="#EF92AF" d="M118.94,116.27c-0.853-1.399-2.657-1.837-4.056-0.986
			c-1.398,0.852-1.838,2.657-0.985,4.056l5.384,8.842c0.418,0.686,1.094,1.143,1.815,1.318c0.723,0.175,1.532,0.08,2.219-0.338
			c1.398-0.853,1.838-2.658,0.985-4.056L118.94,116.27z"/>
		<path clip-path="url(#SVGID_4_)" fill="#99294A" d="M88.836,29.113c-32.585,0-59,26.415-59,59
			c0,16.187,6.523,30.848,17.079,41.508c2.968-2.17,6.216-4.019,9.62-5.524c-5.826-5.233-10.376-11.86-13.121-19.357
			c-1.899-5.185-2.935-10.785-2.935-16.627c0-0.837,0.022-1.67,0.064-2.496c0.009-0.175,0.029-0.346,0.039-0.52
			c0.04-0.652,0.084-1.303,0.149-1.948c0.014-0.137,0.037-0.272,0.052-0.409c0.075-0.678,0.156-1.354,0.259-2.023
			c0.015-0.095,0.035-0.188,0.051-0.283c0.113-0.709,0.236-1.416,0.38-2.115c0.003-0.017,0.008-0.033,0.011-0.05
			c4.548-21.986,24.019-38.513,47.352-38.513c26.707,0,48.356,21.65,48.356,48.357c0,19.372-11.397,36.072-27.848,43.788
			c0.947,0.776,1.882,1.571,2.791,2.406c1.866,1.712,3.527,3.585,5.004,5.581c18.291-10.021,30.696-29.447,30.696-51.775
			C147.836,55.528,121.421,29.113,88.836,29.113"/>
	</g>
	<g clip-path="url(#SVGID_2_)">
		<defs>
			<rect id="SVGID_9_" x="-11.885" y="0.162" width="200" height="270"/>
		</defs>
		<clipPath id="SVGID_10_">
			<use xlink:href="#SVGID_9_"  overflow="visible"/>
		</clipPath>
		<g opacity="0.15" clip-path="url(#SVGID_10_)">
			<g>
				<defs>
					<rect id="SVGID_11_" x="0.887" y="25.922" width="150.139" height="150.139"/>
				</defs>
				<clipPath id="SVGID_12_">
					<use xlink:href="#SVGID_11_"  overflow="visible"/>
				</clipPath>
				<path clip-path="url(#SVGID_12_)" fill="#FFFFFF" d="M20.063,59.626c-1.328,3.197-4.569,6.419-8.001,9.827
					c-5.239,5.203-11.175,11.1-11.175,18.658c0,7.562,5.936,13.458,11.175,18.661c3.432,3.409,6.676,6.627,8.001,9.824
					c1.424,3.429,1.434,8.381,1.444,13.17c0.019,7.588,0.036,15.43,5.14,20.534c5.103,5.106,12.949,5.124,20.537,5.14
					c4.789,0.013,9.738,0.023,13.167,1.444c3.197,1.328,6.419,4.567,9.827,8c5.203,5.239,11.1,11.176,18.659,11.176
					c7.558,0,13.454-5.937,18.656-11.176c3.409-3.433,6.631-6.672,9.828-8c3.426-1.421,8.377-1.432,13.164-1.444
					c7.588-0.016,15.433-0.033,20.54-5.14L26.647,25.922c-5.104,5.107-5.121,12.949-5.14,20.533
					C21.497,51.246,21.487,56.197,20.063,59.626"/>
			</g>
		</g>
	</g>
</g>
</svg>
