<?xml version="1.0" encoding="utf-8"?>
<!-- Generator: Adobe Illustrator 15.1.0, SVG Export Plug-In . SVG Version: 6.00 Build 0)  -->
<!DOCTYPE svg PUBLIC "-//W3C//DTD SVG 1.1//EN" "http://www.w3.org/Graphics/SVG/1.1/DTD/svg11.dtd">
<svg version="1.1" id="Layer_1" xmlns="http://www.w3.org/2000/svg" xmlns:xlink="http://www.w3.org/1999/xlink" x="0px" y="0px"
	 width="176.228px" height="200.333px" viewBox="0 0 176.228 200.333" enable-background="new 0 0 176.228 200.333"
	 xml:space="preserve">
<g>
	<defs>
		<rect id="SVGID_1_" x="-12.772" width="200" height="270"/>
	</defs>
	<clipPath id="SVGID_2_">
		<use xlink:href="#SVGID_1_"  overflow="visible"/>
	</clipPath>
	<g clip-path="url(#SVGID_2_)">
		<defs>
			<rect id="SVGID_3_" x="-12.772" width="200" height="270"/>
		</defs>
		<clipPath id="SVGID_4_">
			<use xlink:href="#SVGID_3_"  overflow="visible"/>
		</clipPath>
		<path clip-path="url(#SVGID_4_)" fill="#B94826" d="M84.99,127.098c0.704-1.064,1.926-1.638,3.224-1.493l58.589,7.039
			c1.058,0.129,1.995,0.747,2.527,1.668l21.323,36.937c0.568,0.983,0.604,2.189,0.096,3.203c-0.508,1.018-1.496,1.711-2.626,1.847
			l-24.138,2.881l-14.564,19.463c-0.641,0.859-1.645,1.358-2.709,1.358c-0.065,0-0.135-0.003-0.204-0.008
			c-1.137-0.068-2.161-0.702-2.729-1.69l-38.901-67.653C84.24,129.542,84.283,128.165,84.99,127.098"/>
		<g opacity="0.3" clip-path="url(#SVGID_4_)">
			<g>
				<defs>
					<rect id="SVGID_5_" x="119.525" y="132.348" width="51.582" height="46.831"/>
				</defs>
				<clipPath id="SVGID_6_">
					<use xlink:href="#SVGID_5_"  overflow="visible"/>
				</clipPath>
				<path clip-path="url(#SVGID_6_)" fill="#231F20" d="M119.975,137.414c-0.638-1.106-0.594-2.484,0.112-3.551
					c0.704-1.064,1.926-1.638,3.225-1.493l26.752,3.214l20.589,35.663c0.569,0.985,0.605,2.191,0.097,3.205
					c-0.509,1.018-1.496,1.711-2.626,1.846l-24.134,2.881L119.975,137.414z"/>
			</g>
		</g>
		<path clip-path="url(#SVGID_4_)" fill="#B94826" d="M90.911,127.098c-0.704-1.064-1.927-1.638-3.225-1.493l-58.589,7.04
			c-1.057,0.129-1.995,0.746-2.527,1.668L5.246,171.248c-0.568,0.983-0.605,2.189-0.096,3.203c0.509,1.019,1.497,1.713,2.626,1.848
			l24.138,2.88l14.565,19.464c0.641,0.858,1.645,1.357,2.708,1.357c0.066,0,0.136-0.003,0.205-0.007
			c1.137-0.069,2.16-0.703,2.729-1.691l38.9-67.653C91.661,129.542,91.618,128.165,90.911,127.098"/>
		<g opacity="0.3" clip-path="url(#SVGID_4_)">
			<g>
				<defs>
					<rect id="SVGID_7_" x="4.793" y="132.348" width="51.581" height="46.831"/>
				</defs>
				<clipPath id="SVGID_8_">
					<use xlink:href="#SVGID_7_"  overflow="visible"/>
				</clipPath>
				<path clip-path="url(#SVGID_8_)" fill="#231F20" d="M55.924,137.414c0.638-1.106,0.595-2.484-0.112-3.551
					c-0.704-1.064-1.926-1.638-3.225-1.493l-26.752,3.214L5.247,171.247c-0.569,0.985-0.605,2.191-0.096,3.205
					c0.508,1.018,1.496,1.711,2.626,1.846l24.133,2.881L55.924,137.414z"/>
			</g>
		</g>
		<path clip-path="url(#SVGID_4_)" fill="#F88559" d="M164.72,69.292c-3.429-3.409-6.673-6.63-7.997-9.824
			c-1.424-3.429-1.434-8.381-1.444-13.171c-0.02-7.588-0.036-15.43-5.14-20.534c-5.104-5.107-12.949-5.123-20.534-5.143
			c-4.789-0.01-9.741-0.023-13.17-1.443c-3.197-1.325-6.419-4.569-9.828-8.001C101.404,5.936,95.508,0,87.95,0
			S74.495,5.936,69.292,11.176c-3.409,3.432-6.63,6.676-9.827,8.001c-3.429,1.423-8.381,1.433-13.171,1.443
			c-7.584,0.02-15.427,0.036-20.533,5.14c-5.105,5.107-5.121,12.949-5.141,20.534c-0.01,4.79-0.02,9.741-1.444,13.17
			c-1.328,3.198-4.569,6.419-8.001,9.828C5.936,74.495,0,80.391,0,87.949c0,7.562,5.936,13.458,11.175,18.661
			c3.432,3.409,6.676,6.627,8.001,9.824c1.424,3.429,1.434,8.381,1.444,13.171c0.02,7.586,0.036,15.43,5.14,20.533
			c5.103,5.107,12.949,5.124,20.537,5.14c4.79,0.014,9.738,0.023,13.167,1.444c3.198,1.328,6.419,4.568,9.828,8
			c5.203,5.24,11.099,11.176,18.657,11.176c7.559,0,13.455-5.936,18.658-11.176c3.409-3.432,6.63-6.672,9.827-8
			c3.426-1.421,8.377-1.431,13.164-1.444c7.588-0.016,15.434-0.032,20.541-5.14c5.103-5.103,5.12-12.946,5.14-20.533
			c0.01-4.79,0.02-9.742,1.443-13.171c1.325-3.197,4.569-6.415,8.001-9.824c5.239-5.203,11.175-11.099,11.175-18.661
			C175.899,80.391,169.959,74.495,164.72,69.292"/>
		<path clip-path="url(#SVGID_4_)" fill="#F7E7C0" d="M87.95,28.951c-32.584,0-59,26.415-59,59c0,32.584,26.415,58.999,59,58.999
			c32.584,0,59-26.415,59-58.999C146.95,55.366,120.534,28.951,87.95,28.951 M95.611,135.697c-0.089,0.014-0.176,0.034-0.265,0.047
			c-0.67,0.103-1.347,0.184-2.025,0.259c-0.137,0.015-0.271,0.038-0.408,0.052c-0.644,0.066-1.295,0.109-1.946,0.149
			c-0.174,0.011-0.347,0.031-0.521,0.04c-0.827,0.042-1.659,0.063-2.496,0.063c-1.67,0-3.319-0.084-4.945-0.249
			c-18.694-1.898-34.241-14.446-40.478-31.48c-1.898-5.184-2.934-10.784-2.934-16.626c0-0.838,0.021-1.67,0.063-2.497
			c0.009-0.174,0.029-0.346,0.04-0.52c0.04-0.652,0.083-1.303,0.149-1.947c0.014-0.138,0.037-0.272,0.052-0.41
			c0.075-0.677,0.156-1.353,0.259-2.022c0.014-0.095,0.035-0.188,0.05-0.283c0.114-0.71,0.237-1.416,0.38-2.115
			c0.004-0.017,0.009-0.034,0.012-0.051C45.146,56.12,64.617,39.594,87.95,39.594c26.706,0,48.356,21.65,48.356,48.357
			C136.306,112.049,118.676,132.024,95.611,135.697"/>
		<g opacity="0.5" clip-path="url(#SVGID_4_)">
			<g>
				<defs>
					<rect id="SVGID_9_" x="39.593" y="39.594" width="96.713" height="96.713"/>
				</defs>
				<clipPath id="SVGID_10_">
					<use xlink:href="#SVGID_9_"  overflow="visible"/>
				</clipPath>
				<path clip-path="url(#SVGID_10_)" fill="#FFFFFF" d="M87.95,39.594c-23.333,0-42.804,16.527-47.352,38.512
					c-0.003,0.017-0.008,0.034-0.011,0.051c-0.144,0.699-0.267,1.405-0.38,2.115c-0.016,0.095-0.036,0.188-0.051,0.283
					c-0.103,0.669-0.184,1.345-0.259,2.023c-0.015,0.137-0.038,0.272-0.052,0.409c-0.065,0.645-0.109,1.296-0.149,1.947
					c-0.01,0.174-0.03,0.346-0.039,0.52c-0.042,0.827-0.064,1.659-0.064,2.497c0,5.842,1.036,11.442,2.934,16.626
					c6.238,17.035,21.784,29.582,40.479,31.481c1.625,0.165,3.275,0.25,4.944,0.25c0.837,0,1.67-0.021,2.496-0.063
					c0.175-0.01,0.346-0.029,0.52-0.04c0.652-0.04,1.304-0.083,1.948-0.149c0.137-0.014,0.271-0.036,0.407-0.051
					c0.679-0.075,1.354-0.157,2.024-0.259c0.09-0.014,0.177-0.034,0.266-0.048c23.064-3.672,40.695-23.647,40.695-47.746
					C136.306,61.244,114.657,39.594,87.95,39.594"/>
			</g>
		</g>
		<path clip-path="url(#SVGID_4_)" fill="#B94826" d="M87.95,28.951c-32.584,0-59,26.415-59,59c0,32.584,26.415,58.999,59,58.999
			c32.584,0,59-26.415,59-58.999C146.95,55.366,120.534,28.951,87.95,28.951 M95.611,135.697c-0.089,0.014-0.176,0.034-0.265,0.047
			c-0.67,0.103-1.347,0.184-2.025,0.259c-0.137,0.015-0.271,0.038-0.408,0.052c-0.644,0.066-1.295,0.109-1.946,0.149
			c-0.174,0.011-0.347,0.031-0.521,0.04c-0.827,0.042-1.659,0.063-2.496,0.063c-1.67,0-3.319-0.084-4.945-0.249
			c-18.694-1.898-34.241-14.446-40.478-31.48c-1.898-5.184-2.934-10.784-2.934-16.626c0-0.838,0.021-1.67,0.063-2.497
			c0.009-0.174,0.029-0.346,0.04-0.52c0.04-0.652,0.083-1.303,0.149-1.947c0.014-0.138,0.037-0.272,0.052-0.41
			c0.075-0.677,0.156-1.353,0.259-2.022c0.014-0.095,0.035-0.188,0.05-0.283c0.114-0.71,0.237-1.416,0.38-2.115
			c0.004-0.017,0.009-0.034,0.012-0.051C45.146,56.12,64.617,39.594,87.95,39.594c26.706,0,48.356,21.65,48.356,48.357
			C136.306,112.049,118.676,132.024,95.611,135.697"/>
	</g>
	<g clip-path="url(#SVGID_2_)">
		<defs>
			<rect id="SVGID_11_" x="-12.772" width="200" height="270"/>
		</defs>
		<clipPath id="SVGID_12_">
			<use xlink:href="#SVGID_11_"  overflow="visible"/>
		</clipPath>
		<path clip-path="url(#SVGID_12_)" fill="#4B1504" d="M121.861,66.846c-0.577-1.617-2.354-2.455-3.97-1.878
			c-1.614,0.576-2.458,2.35-1.88,3.967h-0.002c6.08,17.126-2.822,35.912-19.929,42.056c-17.126,6.077-35.915-2.825-42.057-19.928
			c-0.577-1.617-2.353-2.455-3.968-1.879c-1.615,0.577-2.458,2.35-1.881,3.967c6.351,17.791,24.265,28.134,42.268,25.592
			l3.923,10.987l-5.102,1.822c-2.857,1.031-5.247,2.619-6.928,4.623c-1.641,1.95-2.771,4.688-1.778,7.55
			c0.276,0.772,0.853,1.416,1.592,1.767c0.737,0.349,1.601,0.392,2.374,0.115l42.421-15.144c0.781-0.279,1.409-0.844,1.766-1.593
			c0.355-0.752,0.395-1.595,0.115-2.376c-1.048-2.841-3.657-4.244-6.16-4.716c-2.571-0.485-5.428-0.201-8.286,0.809l-5.102,1.821
			l-3.922-10.988C120.894,103.984,128.207,84.635,121.861,66.846"/>
		<path clip-path="url(#SVGID_12_)" fill="#4B1504" d="M99.161,52.205l-3.51,1.253c-1.453,0.519-3.053-0.239-3.571-1.693
			c-0.52-1.454,0.238-3.053,1.692-3.572l3.51-1.253l-0.73-2.044l-3.509,1.252c-1.454,0.519-3.054-0.24-3.572-1.692
			c-0.52-1.454,0.238-3.053,1.692-3.573l3.509-1.252l-0.392-1.1c-0.114-0.318-0.261-0.617-0.387-0.928l-3.461,1.235
			c-1.454,0.52-3.053-0.238-3.572-1.692s0.239-3.053,1.693-3.572l2.586-0.924c-5.788-7.806-16.198-11.28-25.825-7.844
			c-9.626,3.437-15.483,12.719-15.016,22.424l2.584-0.922c1.454-0.519,3.053,0.239,3.572,1.693c0.519,1.454-0.239,3.053-1.693,3.572
			l-3.459,1.235c0.098,0.32,0.174,0.644,0.288,0.963l0.392,1.099l3.509-1.252c1.454-0.519,3.053,0.238,3.572,1.692
			c0.519,1.453-0.238,3.053-1.692,3.572l-3.509,1.253l0.73,2.045l3.509-1.253c1.454-0.519,3.052,0.239,3.572,1.693
			c0.519,1.454-0.239,3.053-1.693,3.572l-3.509,1.252l1.582,4.431l42.689-15.239L99.161,52.205z"/>
		<path clip-path="url(#SVGID_12_)" fill="#4B1504" d="M92.891,102.054c11.786-4.208,17.934-17.176,13.726-28.964l-4.482-12.555
			l-42.689,15.24l4.482,12.555C68.135,100.117,81.104,106.262,92.891,102.054"/>
		<path clip-path="url(#SVGID_12_)" fill="#B94826" d="M123.265,40.684c-1.333,3.382-3.012,6.643-4.948,9.645
			c10.969,8.865,17.989,22.421,17.989,37.622c0,24.099-17.63,44.074-40.695,47.747c-0.089,0.014-0.176,0.033-0.265,0.047
			c-0.67,0.103-1.347,0.184-2.025,0.258c-0.137,0.016-0.271,0.038-0.407,0.053c-0.645,0.065-1.296,0.108-1.947,0.148
			c-0.174,0.012-0.346,0.03-0.521,0.039c-0.827,0.042-1.658,0.064-2.496,0.064c-1.669,0-3.318-0.085-4.945-0.25
			c-18.694-1.898-34.241-14.445-40.478-31.48c-1.898-5.185-2.934-10.785-2.934-16.627c0-0.837,0.021-1.669,0.063-2.496
			c0.009-0.175,0.029-0.346,0.04-0.52c0.04-0.652,0.083-1.303,0.149-1.948c0.014-0.137,0.037-0.272,0.052-0.409
			c0.075-0.678,0.156-1.354,0.259-2.023c0.014-0.095,0.035-0.188,0.05-0.283c0.113-0.709,0.237-1.416,0.38-2.115
			c0.004-0.017,0.009-0.033,0.012-0.05c0.246-1.191,0.545-2.363,0.877-3.521c-3.578-0.677-6.981-1.623-10.242-2.881
			c-1.476,5.163-2.283,10.609-2.283,16.246c0,32.585,26.415,59,59,59c32.584,0,59-26.415,59-59
			C146.95,68.61,137.643,51.443,123.265,40.684"/>
		<g opacity="0.15" clip-path="url(#SVGID_12_)">
			<g>
				<defs>
					<rect id="SVGID_13_" y="25.76" width="150.139" height="150.139"/>
				</defs>
				<clipPath id="SVGID_14_">
					<use xlink:href="#SVGID_13_"  overflow="visible"/>
				</clipPath>
				<path clip-path="url(#SVGID_14_)" fill="#FFFFFF" d="M19.176,59.464c-1.328,3.197-4.569,6.419-8.001,9.827
					C5.936,74.494,0,80.391,0,87.949c0,7.562,5.936,13.458,11.175,18.661c3.432,3.409,6.676,6.627,8.001,9.824
					c1.424,3.429,1.434,8.381,1.444,13.17c0.019,7.588,0.036,15.43,5.14,20.534c5.103,5.106,12.949,5.124,20.537,5.14
					c4.789,0.013,9.738,0.023,13.167,1.444c3.197,1.328,6.419,4.567,9.827,8c5.203,5.239,11.1,11.176,18.659,11.176
					c7.558,0,13.454-5.937,18.656-11.176c3.409-3.433,6.631-6.672,9.828-8c3.426-1.421,8.377-1.432,13.164-1.444
					c7.588-0.016,15.433-0.033,20.54-5.14L25.76,25.76c-5.104,5.107-5.121,12.949-5.14,20.533
					C20.61,51.083,20.6,56.035,19.176,59.464"/>
			</g>
		</g>
	</g>
</g>
</svg>
