<?xml version="1.0" encoding="utf-8"?>
<!-- Generator: Adobe Illustrator 15.1.0, SVG Export Plug-In . SVG Version: 6.00 Build 0)  -->
<!DOCTYPE svg PUBLIC "-//W3C//DTD SVG 1.1//EN" "http://www.w3.org/Graphics/SVG/1.1/DTD/svg11.dtd">
<svg version="1.1" id="Layer_1" xmlns="http://www.w3.org/2000/svg" xmlns:xlink="http://www.w3.org/1999/xlink" x="0px" y="0px"
	 width="176.833px" height="200.334px" viewBox="0 0 176.833 200.334" enable-background="new 0 0 176.833 200.334"
	 xml:space="preserve">
<g>
	<defs>
		<rect id="SVGID_1_" x="-12.333" width="200" height="270"/>
	</defs>
	<clipPath id="SVGID_2_">
		<use xlink:href="#SVGID_1_"  overflow="visible"/>
	</clipPath>
	<g clip-path="url(#SVGID_2_)">
		<defs>
			<rect id="SVGID_3_" x="-12.333" width="200" height="270"/>
		</defs>
		<clipPath id="SVGID_4_">
			<use xlink:href="#SVGID_3_"  overflow="visible"/>
		</clipPath>
		<path clip-path="url(#SVGID_4_)" fill="#20736B" d="M85.428,127.098c0.704-1.064,1.926-1.638,3.224-1.493l58.589,7.039
			c1.058,0.129,1.995,0.747,2.527,1.668l21.323,36.937c0.568,0.983,0.604,2.189,0.096,3.203c-0.508,1.018-1.496,1.711-2.626,1.847
			l-24.138,2.881l-14.564,19.463c-0.641,0.859-1.645,1.358-2.709,1.358c-0.065,0-0.135-0.003-0.204-0.008
			c-1.137-0.068-2.161-0.702-2.729-1.69l-38.901-67.653C84.678,129.542,84.721,128.165,85.428,127.098"/>
		<g opacity="0.3" clip-path="url(#SVGID_4_)">
			<g>
				<defs>
					<rect id="SVGID_5_" x="119.963" y="132.348" width="51.582" height="46.831"/>
				</defs>
				<clipPath id="SVGID_6_">
					<use xlink:href="#SVGID_5_"  overflow="visible"/>
				</clipPath>
				<path clip-path="url(#SVGID_6_)" fill="#231F20" d="M120.414,137.414c-0.638-1.106-0.594-2.484,0.112-3.551
					c0.704-1.064,1.926-1.638,3.225-1.493l26.752,3.214l20.589,35.663c0.569,0.985,0.605,2.191,0.097,3.205
					c-0.509,1.018-1.496,1.711-2.626,1.846l-24.134,2.881L120.414,137.414z"/>
			</g>
		</g>
		<path clip-path="url(#SVGID_4_)" fill="#20736B" d="M91.349,127.098c-0.704-1.064-1.927-1.638-3.225-1.493l-58.589,7.04
			c-1.057,0.129-1.995,0.746-2.527,1.668L5.685,171.248c-0.568,0.983-0.605,2.189-0.096,3.203c0.509,1.019,1.497,1.713,2.626,1.848
			l24.138,2.88l14.565,19.464c0.641,0.858,1.645,1.357,2.708,1.357c0.066,0,0.136-0.003,0.205-0.007
			c1.137-0.069,2.16-0.703,2.729-1.691l38.9-67.653C92.099,129.542,92.056,128.165,91.349,127.098"/>
		<g opacity="0.3" clip-path="url(#SVGID_4_)">
			<g>
				<defs>
					<rect id="SVGID_7_" x="5.231" y="132.348" width="51.581" height="46.831"/>
				</defs>
				<clipPath id="SVGID_8_">
					<use xlink:href="#SVGID_7_"  overflow="visible"/>
				</clipPath>
				<path clip-path="url(#SVGID_8_)" fill="#231F20" d="M56.363,137.414c0.638-1.106,0.595-2.484-0.112-3.551
					c-0.704-1.064-1.926-1.638-3.225-1.493l-26.752,3.214L5.685,171.247c-0.569,0.985-0.605,2.191-0.096,3.205
					c0.508,1.018,1.496,1.711,2.626,1.846l24.133,2.881L56.363,137.414z"/>
			</g>
		</g>
		<path clip-path="url(#SVGID_4_)" fill="#51BBB1" d="M165.159,69.292c-3.429-3.409-6.673-6.63-7.997-9.824
			c-1.424-3.429-1.434-8.381-1.444-13.171c-0.02-7.588-0.036-15.43-5.14-20.534c-5.104-5.107-12.949-5.123-20.534-5.143
			c-4.789-0.01-9.741-0.023-13.17-1.443c-3.197-1.325-6.419-4.569-9.828-8.001C101.842,5.936,95.947,0,88.388,0
			S74.934,5.936,69.73,11.176c-3.409,3.432-6.63,6.676-9.827,8.001c-3.429,1.423-8.381,1.433-13.171,1.443
			c-7.584,0.02-15.427,0.036-20.533,5.14c-5.105,5.107-5.121,12.949-5.141,20.534c-0.01,4.79-0.02,9.741-1.444,13.17
			c-1.328,3.198-4.569,6.419-8.001,9.828C6.375,74.495,0.438,80.391,0.438,87.949c0,7.562,5.936,13.458,11.175,18.661
			c3.432,3.409,6.676,6.627,8.001,9.824c1.424,3.429,1.434,8.381,1.444,13.171c0.02,7.586,0.036,15.43,5.14,20.533
			c5.103,5.107,12.949,5.124,20.537,5.14c4.79,0.014,9.738,0.023,13.167,1.444c3.198,1.328,6.419,4.568,9.828,8
			c5.203,5.24,11.099,11.176,18.657,11.176c7.559,0,13.455-5.936,18.658-11.176c3.409-3.432,6.63-6.672,9.827-8
			c3.426-1.421,8.377-1.431,13.164-1.444c7.588-0.016,15.434-0.032,20.541-5.14c5.103-5.103,5.12-12.946,5.14-20.533
			c0.01-4.79,0.02-9.742,1.443-13.171c1.325-3.197,4.569-6.415,8.001-9.824c5.239-5.203,11.175-11.099,11.175-18.661
			C176.337,80.391,170.398,74.495,165.159,69.292"/>
		<path clip-path="url(#SVGID_4_)" fill="#F7E7C0" d="M88.388,28.951c-32.584,0-59,26.415-59,59c0,32.584,26.415,58.999,59,58.999
			c32.584,0,59-26.415,59-58.999C147.388,55.366,120.972,28.951,88.388,28.951 M96.049,135.697
			c-0.089,0.014-0.176,0.034-0.265,0.047c-0.67,0.103-1.347,0.184-2.025,0.259c-0.137,0.015-0.271,0.038-0.408,0.052
			c-0.644,0.066-1.295,0.109-1.946,0.149c-0.174,0.011-0.347,0.031-0.521,0.04c-0.827,0.042-1.659,0.063-2.496,0.063
			c-1.67,0-3.319-0.084-4.945-0.249c-18.694-1.898-34.241-14.446-40.478-31.48c-1.898-5.184-2.934-10.784-2.934-16.626
			c0-0.838,0.021-1.67,0.063-2.497c0.009-0.174,0.029-0.346,0.04-0.52c0.04-0.652,0.083-1.303,0.149-1.947
			c0.014-0.138,0.037-0.272,0.052-0.41c0.075-0.677,0.156-1.353,0.259-2.022c0.014-0.095,0.035-0.188,0.05-0.283
			c0.114-0.71,0.237-1.416,0.38-2.115c0.004-0.017,0.009-0.034,0.012-0.051c4.548-21.986,24.019-38.512,47.352-38.512
			c26.706,0,48.356,21.65,48.356,48.357C136.745,112.049,119.115,132.024,96.049,135.697"/>
		<g opacity="0.3" clip-path="url(#SVGID_4_)">
			<g>
				<defs>
					<rect id="SVGID_9_" x="40.031" y="39.594" width="96.713" height="96.713"/>
				</defs>
				<clipPath id="SVGID_10_">
					<use xlink:href="#SVGID_9_"  overflow="visible"/>
				</clipPath>
				<path clip-path="url(#SVGID_10_)" fill="#FFFFFF" d="M88.388,39.594c-23.333,0-42.804,16.527-47.352,38.512
					c-0.003,0.017-0.008,0.034-0.011,0.051c-0.144,0.699-0.267,1.405-0.38,2.115c-0.016,0.095-0.036,0.188-0.051,0.283
					c-0.103,0.669-0.184,1.345-0.259,2.023c-0.015,0.137-0.038,0.272-0.052,0.409c-0.065,0.645-0.109,1.296-0.149,1.947
					c-0.01,0.174-0.03,0.346-0.039,0.52c-0.042,0.827-0.064,1.659-0.064,2.497c0,5.842,1.036,11.442,2.934,16.626
					c6.238,17.035,21.784,29.582,40.479,31.481c1.625,0.165,3.275,0.25,4.944,0.25c0.837,0,1.67-0.021,2.496-0.063
					c0.175-0.01,0.346-0.029,0.52-0.04c0.652-0.04,1.304-0.083,1.948-0.149c0.137-0.014,0.271-0.036,0.407-0.051
					c0.679-0.075,1.354-0.157,2.024-0.259c0.09-0.014,0.177-0.034,0.266-0.048c23.064-3.672,40.695-23.647,40.695-47.746
					C136.745,61.244,115.095,39.594,88.388,39.594"/>
			</g>
		</g>
		<path clip-path="url(#SVGID_4_)" fill="#033631" d="M142.667,89.25c0,29.892-24.233,54.125-54.125,54.125
			c-29.892,0-54.125-24.233-54.125-54.125s24.233-54.125,54.125-54.125C118.433,35.125,142.667,59.358,142.667,89.25"/>
		<path clip-path="url(#SVGID_4_)" fill="#FFFFFF" d="M106.344,85.574c0.064,0.403,0.178,0.811,0.435,1.188
			c0.169,0.25,0.408,0.475,0.693,0.629c0.38,0.209,0.813,0.291,1.271,0.291h0.003c1.231,0,2.331-0.596,3.086-1.492
			c0.761-0.898,1.209-2.105,1.211-3.421c-0.002-1.316-0.45-2.523-1.211-3.421c-0.756-0.897-1.856-1.493-3.089-1.492
			c-0.458-0.001-0.891,0.082-1.271,0.291c-0.382,0.205-0.672,0.537-0.844,0.884c-0.342,0.701-0.36,2.183-0.36,2.183
			c0,0.055,0,0.139,0,0.239h-2.558c-0.001-0.195-0.005-0.386-0.005-0.582c0-4.229,0.146-8.641,0.499-13.017h2.063v0.239
			c0,0.43,0.013,0.844,0.076,1.25c0.064,0.403,0.178,0.811,0.435,1.188c0.169,0.25,0.409,0.475,0.693,0.629
			c0.38,0.208,0.813,0.291,1.271,0.291h0.003c1.231,0,2.33-0.596,3.086-1.492c0.762-0.899,1.209-2.106,1.211-3.421
			c-0.002-1.316-0.449-2.523-1.211-3.422c-0.756-0.896-1.856-1.493-3.089-1.492c-0.458,0-0.891,0.083-1.271,0.291
			c-0.382,0.206-0.672,0.538-0.844,0.885c-0.342,0.701-0.353,1.419-0.36,2.182v0.24h-1.828c0.319-3.128,0.756-6.214,1.34-9.175
			c0.051-0.258-0.016-0.523-0.183-0.727c-0.167-0.203-0.415-0.32-0.678-0.32H88.542H72.164c-0.263,0-0.51,0.117-0.678,0.32
			c-0.167,0.204-0.234,0.469-0.183,0.727c0.584,2.961,1.021,6.047,1.339,9.175h-1.827v-0.24c-0.008-0.763-0.019-1.481-0.36-2.182
			c-0.172-0.347-0.462-0.679-0.844-0.885c-0.38-0.208-0.813-0.291-1.271-0.291c-1.232-0.001-2.333,0.596-3.089,1.492
			c-0.761,0.899-1.209,2.106-1.21,3.422c0.001,1.315,0.449,2.522,1.21,3.421c0.755,0.896,1.856,1.492,3.086,1.492h0.003
			c0.458,0,0.891-0.083,1.271-0.291c0.284-0.154,0.524-0.379,0.693-0.629c0.257-0.377,0.37-0.785,0.435-1.188
			c0.063-0.406,0.076-0.82,0.076-1.25v-0.239h2.062c0.355,4.376,0.5,8.788,0.5,13.017c0,0.196-0.004,0.387-0.005,0.582h-2.557
			c0-0.1,0-0.184,0-0.239c0,0-0.019-1.482-0.36-2.183c-0.171-0.347-0.462-0.679-0.844-0.884c-0.38-0.209-0.813-0.292-1.271-0.291
			c-1.232-0.001-2.333,0.595-3.089,1.492c-0.76,0.898-1.209,2.105-1.21,3.421c0.001,1.316,0.45,2.523,1.21,3.421
			c0.755,0.896,1.855,1.492,3.086,1.492h0.003c0.458,0,0.891-0.082,1.271-0.291c0.285-0.154,0.524-0.379,0.693-0.629
			c0.257-0.377,0.37-0.785,0.435-1.188c0.063-0.406,0.076-0.82,0.076-1.25v-0.239h2.533c-0.086,5.366-0.374,10.319-0.698,14.389
			h-1.835v-0.24c0,0-0.019-1.481-0.36-2.182c-0.172-0.347-0.462-0.679-0.844-0.885c-0.38-0.208-0.813-0.291-1.271-0.29
			c-1.232-0.002-2.333,0.595-3.089,1.491c-0.76,0.899-1.209,2.106-1.21,3.422c0.001,1.316,0.449,2.522,1.21,3.421
			c0.755,0.896,1.855,1.492,3.085,1.492h0.004c0.458,0,0.891-0.083,1.271-0.291c0.285-0.154,0.524-0.379,0.693-0.629
			c0.257-0.377,0.37-0.785,0.435-1.188c0.063-0.406,0.076-0.82,0.076-1.25v-0.239h1.612c-0.223,2.453-0.444,4.457-0.61,5.857
			c-0.087,0.726-0.159,1.29-0.209,1.672c-0.051,0.383-0.079,0.579-0.079,0.579c-0.047,0.33,0.097,0.659,0.372,0.848
			c0.967,0.663,1.894,1.218,2.727,1.865c1.246,0.976,2.308,2.12,3.135,4.269c0.821,2.149,1.363,5.327,1.361,10.222v16.14
			c3.059,0.537,6.205,0.817,9.418,0.817c3.212,0,6.357-0.28,9.417-0.817v-16.14c-0.003-6.533,0.962-9.987,2.265-12.067
			c0.654-1.046,1.396-1.776,2.23-2.424c0.833-0.647,1.761-1.202,2.728-1.865c0.273-0.189,0.419-0.518,0.372-0.848
			c0,0-0.028-0.196-0.079-0.579c-0.147-1.117-0.48-3.809-0.818-7.529h1.611v0.239c0,0.43,0.013,0.844,0.076,1.25
			c0.064,0.403,0.178,0.811,0.435,1.188c0.169,0.25,0.408,0.475,0.693,0.629c0.38,0.208,0.813,0.291,1.271,0.291h0.004
			c1.23,0,2.33-0.596,3.085-1.492c0.762-0.899,1.209-2.105,1.211-3.421c-0.002-1.316-0.45-2.523-1.211-3.422
			c-0.756-0.896-1.856-1.493-3.089-1.491c-0.458-0.001-0.891,0.082-1.271,0.29c-0.382,0.206-0.672,0.538-0.844,0.885
			c-0.342,0.701-0.36,2.182-0.36,2.182v0.24h-1.835c-0.324-4.069-0.611-9.024-0.698-14.389h2.533v0.239
			C106.268,84.754,106.281,85.167,106.344,85.574"/>
		<path clip-path="url(#SVGID_4_)" fill="#20736B" d="M88.388,28.951c-32.584,0-59,26.415-59,59c0,32.584,26.415,58.999,59,58.999
			c32.584,0,59-26.415,59-58.999C147.388,55.366,120.972,28.951,88.388,28.951 M96.049,135.697
			c-0.089,0.014-0.176,0.034-0.265,0.047c-0.67,0.103-1.347,0.184-2.025,0.259c-0.137,0.015-0.271,0.038-0.408,0.052
			c-0.644,0.066-1.295,0.109-1.946,0.149c-0.174,0.011-0.347,0.031-0.521,0.04c-0.827,0.042-1.659,0.063-2.496,0.063
			c-1.67,0-3.319-0.084-4.945-0.249c-18.694-1.898-34.241-14.446-40.478-31.48c-1.898-5.184-2.934-10.784-2.934-16.626
			c0-0.838,0.021-1.67,0.063-2.497c0.009-0.174,0.029-0.346,0.04-0.52c0.04-0.652,0.083-1.303,0.149-1.947
			c0.014-0.138,0.037-0.272,0.052-0.41c0.075-0.677,0.156-1.353,0.259-2.022c0.014-0.095,0.035-0.188,0.05-0.283
			c0.114-0.71,0.237-1.416,0.38-2.115c0.004-0.017,0.009-0.034,0.012-0.051c4.548-21.986,24.019-38.512,47.352-38.512
			c26.706,0,48.356,21.65,48.356,48.357C136.745,112.049,119.115,132.024,96.049,135.697"/>
		<g opacity="0.15" clip-path="url(#SVGID_4_)">
			<g>
				<defs>
					<rect id="SVGID_11_" x="0.438" y="25.76" width="150.139" height="150.139"/>
				</defs>
				<clipPath id="SVGID_12_">
					<use xlink:href="#SVGID_11_"  overflow="visible"/>
				</clipPath>
				<path clip-path="url(#SVGID_12_)" fill="#FFFFFF" d="M19.615,59.464c-1.328,3.197-4.569,6.419-8.001,9.827
					c-5.239,5.203-11.175,11.1-11.175,18.658c0,7.562,5.936,13.458,11.175,18.661c3.432,3.409,6.676,6.627,8.001,9.824
					c1.424,3.429,1.434,8.381,1.444,13.17c0.019,7.588,0.036,15.43,5.14,20.534c5.103,5.106,12.949,5.124,20.537,5.14
					c4.789,0.013,9.738,0.023,13.167,1.444c3.197,1.328,6.419,4.567,9.827,8c5.203,5.239,11.1,11.176,18.659,11.176
					c7.558,0,13.454-5.937,18.656-11.176c3.409-3.433,6.631-6.672,9.828-8c3.426-1.421,8.377-1.432,13.164-1.444
					c7.588-0.016,15.433-0.033,20.54-5.14L26.199,25.76c-5.104,5.107-5.121,12.949-5.14,20.533
					C21.049,51.083,21.039,56.035,19.615,59.464"/>
			</g>
		</g>
	</g>
</g>
</svg>
