<?xml version="1.0" encoding="utf-8"?>
<!-- Generator: Adobe Illustrator 15.1.0, SVG Export Plug-In . SVG Version: 6.00 Build 0)  -->
<!DOCTYPE svg PUBLIC "-//W3C//DTD SVG 1.1//EN" "http://www.w3.org/Graphics/SVG/1.1/DTD/svg11.dtd">
<svg version="1.1" id="Layer_1" xmlns="http://www.w3.org/2000/svg" xmlns:xlink="http://www.w3.org/1999/xlink" x="0px" y="0px"
	 width="176.23px" height="200.325px" viewBox="0 0 176.23 200.325" enable-background="new 0 0 176.23 200.325"
	 xml:space="preserve">
<g>
	<defs>
		<rect id="SVGID_1_" x="-12.77" y="-0.347" width="200" height="298.333"/>
	</defs>
	<clipPath id="SVGID_2_">
		<use xlink:href="#SVGID_1_"  overflow="visible"/>
	</clipPath>
	<g clip-path="url(#SVGID_2_)">
		<defs>
			<rect id="SVGID_3_" x="-12.77" y="-0.347" width="200" height="298.333"/>
		</defs>
		<clipPath id="SVGID_4_">
			<use xlink:href="#SVGID_3_"  overflow="visible"/>
		</clipPath>
		<path clip-path="url(#SVGID_4_)" fill="#175A2A" d="M84.271,126.75c0.704-1.063,1.926-1.637,3.224-1.492l58.589,7.039
			c1.057,0.129,1.995,0.746,2.526,1.668l21.323,36.936c0.569,0.984,0.605,2.19,0.096,3.204c-0.508,1.018-1.495,1.711-2.626,1.846
			l-24.138,2.882l-14.563,19.463c-0.642,0.858-1.646,1.357-2.709,1.357c-0.066,0-0.136-0.003-0.204-0.007
			c-1.138-0.069-2.161-0.703-2.729-1.69l-38.901-67.653C83.521,129.195,83.563,127.817,84.271,126.75"/>
		<g opacity="0.3" clip-path="url(#SVGID_4_)">
			<g>
				<defs>
					<rect id="SVGID_5_" x="118.806" y="132.001" width="51.582" height="46.829"/>
				</defs>
				<clipPath id="SVGID_6_">
					<use xlink:href="#SVGID_5_"  overflow="visible"/>
				</clipPath>
				<path clip-path="url(#SVGID_6_)" fill="#231F20" d="M119.256,137.067c-0.639-1.106-0.596-2.483,0.111-3.552
					c0.704-1.063,1.926-1.637,3.226-1.492l26.752,3.214l20.589,35.663c0.568,0.985,0.604,2.191,0.096,3.205
					c-0.508,1.017-1.496,1.711-2.626,1.846l-24.133,2.88L119.256,137.067z"/>
			</g>
		</g>
		<path clip-path="url(#SVGID_4_)" fill="#175A2A" d="M90.191,126.75c-0.704-1.063-1.926-1.637-3.224-1.492l-58.589,7.04
			c-1.057,0.129-1.995,0.745-2.527,1.668L4.527,170.9c-0.568,0.984-0.605,2.19-0.096,3.204c0.509,1.019,1.497,1.712,2.626,1.847
			l24.138,2.881l14.565,19.464c0.641,0.857,1.645,1.356,2.708,1.356c0.066,0,0.136-0.003,0.205-0.006
			c1.137-0.07,2.16-0.704,2.729-1.691l38.9-67.653C90.941,129.195,90.898,127.817,90.191,126.75"/>
		<g opacity="0.3" clip-path="url(#SVGID_4_)">
			<g>
				<defs>
					<rect id="SVGID_7_" x="4.074" y="132.001" width="51.581" height="46.829"/>
				</defs>
				<clipPath id="SVGID_8_">
					<use xlink:href="#SVGID_7_"  overflow="visible"/>
				</clipPath>
				<path clip-path="url(#SVGID_8_)" fill="#231F20" d="M55.206,137.067c0.638-1.106,0.595-2.483-0.112-3.552
					c-0.704-1.063-1.926-1.637-3.225-1.492l-26.752,3.214L4.527,170.9c-0.569,0.985-0.605,2.191-0.096,3.205
					c0.508,1.017,1.496,1.711,2.626,1.846l24.133,2.88L55.206,137.067z"/>
			</g>
		</g>
		<path clip-path="url(#SVGID_4_)" fill="#50B46C" d="M164,68.944c-3.429-3.409-6.673-6.63-7.997-9.824
			c-1.424-3.429-1.434-8.381-1.443-13.171c-0.021-7.588-0.036-15.43-5.141-20.534c-5.104-5.107-12.948-5.123-20.533-5.143
			c-4.789-0.01-9.741-0.023-13.17-1.443c-3.197-1.325-6.419-4.569-9.828-8.001c-5.203-5.24-11.1-11.176-18.657-11.176
			c-7.559,0-13.455,5.936-18.658,11.176c-3.409,3.432-6.63,6.676-9.827,8.001c-3.429,1.423-8.381,1.433-13.171,1.443
			c-7.584,0.02-15.427,0.036-20.533,5.14c-5.105,5.107-5.121,12.949-5.141,20.534c-0.01,4.79-0.02,9.741-1.444,13.17
			c-1.328,3.198-4.569,6.419-8.001,9.828C5.217,74.147-0.719,80.043-0.719,87.602c0,7.562,5.936,13.458,11.175,18.661
			c3.432,3.409,6.676,6.627,8.001,9.824c1.424,3.429,1.434,8.381,1.444,13.171c0.02,7.587,0.036,15.43,5.14,20.533
			c5.103,5.106,12.949,5.124,20.537,5.14c4.79,0.013,9.738,0.023,13.167,1.444c3.198,1.328,6.419,4.567,9.828,8
			c5.203,5.24,11.099,11.176,18.657,11.176c7.558,0,13.455-5.936,18.658-11.176c3.409-3.433,6.63-6.672,9.827-8
			c3.426-1.421,8.377-1.432,13.163-1.444c7.589-0.016,15.435-0.033,20.541-5.14c5.104-5.104,5.12-12.946,5.141-20.533
			c0.009-4.79,0.019-9.742,1.442-13.171c1.325-3.197,4.569-6.415,8.001-9.824c5.239-5.203,11.176-11.099,11.176-18.661
			C175.18,80.043,169.24,74.147,164,68.944"/>
		<path clip-path="url(#SVGID_4_)" fill="#062C11" d="M87.23,39.247c-23.333,0-42.804,16.527-47.352,38.512
			c-0.003,0.017-0.008,0.034-0.011,0.051c-0.144,0.699-0.267,1.405-0.38,2.115c-0.016,0.095-0.036,0.188-0.051,0.283
			c-0.103,0.669-0.184,1.345-0.259,2.023c-0.015,0.137-0.038,0.272-0.052,0.409c-0.065,0.645-0.109,1.296-0.149,1.947
			c-0.01,0.174-0.03,0.346-0.039,0.52c-0.042,0.827-0.064,1.659-0.064,2.497c0,5.842,1.036,11.442,2.934,16.626
			c6.238,17.035,21.784,29.583,40.479,31.481c1.625,0.165,3.275,0.25,4.943,0.25c0.837,0,1.67-0.021,2.496-0.064
			c0.176-0.009,0.347-0.029,0.521-0.039c0.651-0.041,1.303-0.084,1.948-0.149c0.137-0.015,0.271-0.036,0.406-0.052
			c0.68-0.074,1.355-0.156,2.025-0.258c0.089-0.015,0.176-0.035,0.265-0.049c23.065-3.672,40.696-23.647,40.696-47.746
			C135.587,60.896,113.937,39.247,87.23,39.247"/>
		<path clip-path="url(#SVGID_4_)" fill="#367A49" d="M87.23,28.628c-32.584,0-59,26.415-59,59c0,2.625,0.189,5.205,0.521,7.739
			c3.82,0.147,7.512,0.744,11.062,1.739c-0.609-3.066-0.94-6.233-0.94-9.478c0-0.837,0.022-1.67,0.064-2.496
			c0.009-0.175,0.029-0.346,0.039-0.52c0.04-0.652,0.084-1.303,0.149-1.948c0.014-0.137,0.037-0.272,0.052-0.409
			c0.075-0.678,0.156-1.354,0.259-2.023c0.015-0.095,0.036-0.188,0.051-0.283c0.113-0.71,0.236-1.416,0.38-2.115
			c0.003-0.017,0.008-0.033,0.011-0.051c4.548-21.985,24.019-38.512,47.352-38.512c26.707,0,48.357,21.65,48.357,48.357
			c0,24.099-17.631,44.074-40.696,47.746c-0.089,0.015-0.176,0.033-0.265,0.048c-0.67,0.103-1.346,0.185-2.025,0.259
			c-0.136,0.016-0.27,0.038-0.406,0.053c-0.646,0.064-1.297,0.108-1.948,0.148c-0.174,0.01-0.345,0.029-0.521,0.039
			c-0.826,0.042-1.659,0.064-2.496,0.064c-1.668,0-3.318-0.086-4.943-0.25c-2.309-0.234-4.57-0.634-6.771-1.181
			c0.766,3.556,1.221,7.177,1.381,10.765c0.006,0.129,0,0.26,0.004,0.389c3.356,0.593,6.804,0.92,10.33,0.92
			c32.585,0,59-26.415,59-59S119.815,28.628,87.23,28.628"/>
		<path clip-path="url(#SVGID_4_)" fill="#FFFFFF" d="M86.299,67.149l17.176-17.176c2.513-2.511,5.703-4.109,9.169-4.665
			c-0.758-0.635-1.508-1.283-2.241-1.956c-1.396-1.281-2.668-2.661-3.844-4.106c-3.049,1.182-5.911,2.987-8.368,5.443L81.015,61.865
			c-1.46,1.459-1.46,3.825,0,5.284C82.474,68.608,84.84,68.608,86.299,67.149"/>
		<path clip-path="url(#SVGID_4_)" fill="#FFFFFF" d="M136.736,70.019c-1.792-1.645-3.393-3.439-4.824-5.347
			c-0.569,3.433-2.162,6.592-4.655,9.084L104.798,96.22c-6.56,6.555-17.227,6.555-23.785,0c-1.459-1.459-3.825-1.459-5.284,0
			c-1.46,1.46-1.46,3.827,0,5.285c4.734,4.735,10.955,7.102,17.175,7.102c6.222,0,12.441-2.367,17.177-7.102l22.462-22.462
			c2.329-2.328,4.121-5.054,5.322-8.026C137.488,70.686,137.107,70.36,136.736,70.019"/>
		<path clip-path="url(#SVGID_4_)" fill="#50B46C" d="M100.459,119.817c-2.063,0-3.737,1.674-3.737,3.737v11.212
			c0,2.062,1.674,3.737,3.737,3.737c2.063,0,3.736-1.676,3.736-3.737v-11.212C104.196,121.489,102.524,119.817,100.459,119.817"/>
		<path clip-path="url(#SVGID_4_)" fill="#50B46C" d="M113.861,117.175c-1.459-1.459-3.825-1.459-5.284,0
			c-1.46,1.459-1.46,3.824,0,5.283l7.926,7.928c0.731,0.729,1.687,1.095,2.643,1.095c0.957,0,1.911-0.365,2.642-1.095
			c1.46-1.461,1.46-3.826,0-5.285L113.861,117.175z"/>
		<path clip-path="url(#SVGID_4_)" fill="#50B46C" d="M122.817,104.868h-11.211c-2.063,0-3.738,1.674-3.738,3.737
			s1.675,3.737,3.738,3.737h11.211c2.063,0,3.736-1.674,3.736-3.737S124.881,104.868,122.817,104.868"/>
		<path clip-path="url(#SVGID_4_)" fill="#50B46C" d="M70.562,61.891c2.063,0,3.737-1.674,3.737-3.737V46.942
			c0-2.062-1.674-3.737-3.737-3.737s-3.737,1.675-3.737,3.737v11.212C66.825,60.217,68.499,61.891,70.562,61.891"/>
		<path clip-path="url(#SVGID_4_)" fill="#50B46C" d="M56.708,64.534c0.731,0.731,1.685,1.095,2.642,1.095s1.912-0.364,2.642-1.095
			c1.46-1.459,1.46-3.825,0-5.284l-7.926-7.929c-1.46-1.459-3.825-1.459-5.284,0c-1.46,1.46-1.46,3.825,0,5.285L56.708,64.534z"/>
		<path clip-path="url(#SVGID_4_)" fill="#50B46C" d="M48.074,76.84h11.211c2.063,0,3.738-1.674,3.738-3.737
			s-1.675-3.737-3.738-3.737H48.074c-2.063,0-3.737,1.674-3.737,3.737S46.011,76.84,48.074,76.84"/>
	</g>
	<g clip-path="url(#SVGID_2_)">
		<defs>
			<rect id="SVGID_9_" x="-12.77" y="-0.347" width="200" height="298.333"/>
		</defs>
		<clipPath id="SVGID_10_">
			<use xlink:href="#SVGID_9_"  overflow="visible"/>
		</clipPath>
		<path clip-path="url(#SVGID_10_)" fill="#367A49" d="M91.759,135.766c-0.503,0.044-1.007,0.085-1.513,0.116
			c-0.174,0.01-0.345,0.029-0.52,0.039c-0.827,0.042-1.659,0.064-2.496,0.064c-1.669,0-3.319-0.086-4.945-0.25
			c-18.694-1.898-34.241-14.447-40.478-31.48c-1.898-5.185-2.934-10.785-2.934-16.627c0-0.837,0.021-1.669,0.063-2.496
			c0.009-0.175,0.029-0.346,0.04-0.52c0.04-0.652,0.083-1.303,0.149-1.948c0.014-0.137,0.037-0.272,0.052-0.409
			c0.072-0.645,0.151-1.288,0.246-1.925c-3.164,0.647-6.365,0.989-9.527,0.989c-0.444,0-0.882-0.022-1.322-0.034
			c-0.223,2.084-0.344,4.199-0.344,6.343c0,32.585,26.415,59,59,59c0.894,0,1.781-0.028,2.666-0.067
			C90.024,143.005,90.684,139.355,91.759,135.766"/>
		<path clip-path="url(#SVGID_10_)" fill="#367A49" d="M87.23,39.271c26.707,0,48.357,21.65,48.357,48.357
			c0,4.173-0.54,8.219-1.534,12.081c1.951-0.248,3.904-0.39,5.843-0.39c1.732,0,3.438,0.095,5.118,0.275
			c0.796-3.864,1.216-7.866,1.216-11.966c0-32.585-26.415-59-59-59c-2.533,0-5.022,0.178-7.472,0.487
			c0.057,0.736,0.105,1.471,0.138,2.204c0.126,2.811-0.126,5.712-0.665,8.62C81.834,39.505,84.504,39.271,87.23,39.271"/>
		<path clip-path="url(#SVGID_10_)" fill="#FFFFFF" d="M87.621,113.395l-14.534,14.535c-3.159,3.158-7.382,4.9-11.891,4.9
			c-4.507,0-8.732-1.742-11.892-4.9c-6.557-6.558-6.557-17.228,0-23.784l21.141-21.141c3.16-3.158,7.383-4.9,11.892-4.9
			c4.507,0,8.729,1.742,11.889,4.9c1.46,1.459,3.825,1.459,5.285,0c1.459-1.46,1.459-3.825,0-5.285
			c-9.468-9.468-24.878-9.47-34.352,0L44.017,98.863c-4.571,4.571-7.089,10.672-7.089,17.176c0,6.503,2.518,12.604,7.091,17.174
			c4.57,4.572,10.671,7.092,17.174,7.092c6.504,0,12.605-2.52,17.176-7.092l14.533-14.533c1.46-1.459,1.46-3.826,0-5.285
			C91.443,111.936,89.08,111.936,87.621,113.395"/>
		<g opacity="0.15" clip-path="url(#SVGID_10_)">
			<g>
				<defs>
					<rect id="SVGID_11_" x="0.002" y="25.413" width="150.139" height="150.139"/>
				</defs>
				<clipPath id="SVGID_12_">
					<use xlink:href="#SVGID_11_"  overflow="visible"/>
				</clipPath>
				<path clip-path="url(#SVGID_12_)" fill="#FFFFFF" d="M19.178,59.117c-1.328,3.197-4.569,6.419-8.001,9.827
					c-5.239,5.203-11.175,11.1-11.175,18.658c0,7.562,5.936,13.458,11.175,18.661c3.432,3.409,6.676,6.627,8.001,9.825
					c1.424,3.428,1.434,8.381,1.444,13.17c0.019,7.588,0.036,15.43,5.14,20.533c5.103,5.107,12.949,5.124,20.537,5.141
					c4.789,0.013,9.738,0.022,13.167,1.443c3.197,1.328,6.419,4.568,9.827,8c5.203,5.24,11.1,11.177,18.659,11.177
					c7.558,0,13.454-5.937,18.656-11.177c3.409-3.432,6.631-6.672,9.828-8c3.426-1.421,8.377-1.431,13.164-1.443
					c7.588-0.017,15.433-0.033,20.54-5.141L25.762,25.413c-5.104,5.107-5.121,12.949-5.14,20.533
					C20.612,50.736,20.602,55.688,19.178,59.117"/>
			</g>
		</g>
	</g>
</g>
</svg>
